<mxfile host="app.diagrams.net" modified="2024-05-14T10:36:50.702Z" agent="Mozilla/5.0 (Windows NT 10.0; Win64; x64) AppleWebKit/537.36 (KHTML, like Gecko) Chrome/124.0.0.0 Safari/537.36 Edg/124.0.0.0" etag="gwmS3at4AbeZgqvePhHy" version="24.2.3" type="github">
  <diagram id="R2lEEEUBdFMjLlhIrx00" name="Page-1">
    <mxGraphModel dx="878" dy="1629" grid="1" gridSize="10" guides="1" tooltips="1" connect="1" arrows="1" fold="1" page="1" pageScale="1" pageWidth="850" pageHeight="1100" math="0" shadow="0" extFonts="Permanent Marker^https://fonts.googleapis.com/css?family=Permanent+Marker">
      <root>
        <mxCell id="0" />
        <mxCell id="1" parent="0" />
        <mxCell id="dFxG5B13dRNkU5GHpNi5-4" value="field 领域表" style="swimlane;childLayout=stackLayout;horizontal=1;startSize=50;horizontalStack=0;rounded=1;fontSize=14;fontStyle=0;strokeWidth=2;resizeParent=0;resizeLast=1;shadow=0;dashed=0;align=center;arcSize=4;whiteSpace=wrap;html=1;" vertex="1" parent="1">
          <mxGeometry x="130" y="100" width="160" height="120" as="geometry" />
        </mxCell>
        <mxCell id="dFxG5B13dRNkU5GHpNi5-5" value="&lt;font style=&quot;font-size: 14px;&quot;&gt;id&lt;br&gt;name&lt;/font&gt;" style="align=left;strokeColor=none;fillColor=none;spacingLeft=4;fontSize=12;verticalAlign=top;resizable=0;rotatable=0;part=1;html=1;" vertex="1" parent="dFxG5B13dRNkU5GHpNi5-4">
          <mxGeometry y="50" width="160" height="70" as="geometry" />
        </mxCell>
        <mxCell id="dFxG5B13dRNkU5GHpNi5-7" value="reservation 预约记录表" style="swimlane;childLayout=stackLayout;horizontal=1;startSize=50;horizontalStack=0;rounded=1;fontSize=14;fontStyle=0;strokeWidth=2;resizeParent=0;resizeLast=1;shadow=0;dashed=0;align=center;arcSize=4;whiteSpace=wrap;html=1;" vertex="1" parent="1">
          <mxGeometry x="360" y="187.5" width="160" height="190" as="geometry" />
        </mxCell>
        <mxCell id="dFxG5B13dRNkU5GHpNi5-8" value="&lt;font style=&quot;font-size: 14px;&quot;&gt;id&lt;br&gt;user_id&lt;br&gt;consultant_id&lt;br&gt;booking_time&lt;/font&gt;&lt;div&gt;&lt;font size=&quot;3&quot;&gt;field_id&lt;br&gt;status&lt;br&gt;money&lt;/font&gt;&lt;/div&gt;" style="align=left;strokeColor=none;fillColor=none;spacingLeft=4;fontSize=12;verticalAlign=top;resizable=0;rotatable=0;part=1;html=1;" vertex="1" parent="dFxG5B13dRNkU5GHpNi5-7">
          <mxGeometry y="50" width="160" height="140" as="geometry" />
        </mxCell>
        <mxCell id="dFxG5B13dRNkU5GHpNi5-10" value="estimate 评估表" style="swimlane;childLayout=stackLayout;horizontal=1;startSize=50;horizontalStack=0;rounded=1;fontSize=14;fontStyle=0;strokeWidth=2;resizeParent=0;resizeLast=1;shadow=0;dashed=0;align=center;arcSize=4;whiteSpace=wrap;html=1;" vertex="1" parent="1">
          <mxGeometry x="630" y="187.5" width="160" height="175" as="geometry" />
        </mxCell>
        <mxCell id="dFxG5B13dRNkU5GHpNi5-11" value="&lt;font style=&quot;font-size: 14px;&quot;&gt;id&lt;br&gt;user_id&lt;br&gt;&lt;/font&gt;&lt;div&gt;&lt;font size=&quot;3&quot;&gt;field_id&lt;br&gt;score&lt;br&gt;time&lt;br&gt;resport_id&lt;/font&gt;&lt;/div&gt;" style="align=left;strokeColor=none;fillColor=none;spacingLeft=4;fontSize=12;verticalAlign=top;resizable=0;rotatable=0;part=1;html=1;" vertex="1" parent="dFxG5B13dRNkU5GHpNi5-10">
          <mxGeometry y="50" width="160" height="125" as="geometry" />
        </mxCell>
        <mxCell id="dFxG5B13dRNkU5GHpNi5-12" value="report 评测结果表" style="swimlane;childLayout=stackLayout;horizontal=1;startSize=50;horizontalStack=0;rounded=1;fontSize=14;fontStyle=0;strokeWidth=2;resizeParent=0;resizeLast=1;shadow=0;dashed=0;align=center;arcSize=4;whiteSpace=wrap;html=1;" vertex="1" parent="1">
          <mxGeometry x="480" width="160" height="175" as="geometry" />
        </mxCell>
        <mxCell id="dFxG5B13dRNkU5GHpNi5-13" value="&lt;font style=&quot;font-size: 14px;&quot;&gt;id&lt;br&gt;result&lt;br&gt;content&lt;/font&gt;" style="align=left;strokeColor=none;fillColor=none;spacingLeft=4;fontSize=12;verticalAlign=top;resizable=0;rotatable=0;part=1;html=1;" vertex="1" parent="dFxG5B13dRNkU5GHpNi5-12">
          <mxGeometry y="50" width="160" height="125" as="geometry" />
        </mxCell>
        <mxCell id="dFxG5B13dRNkU5GHpNi5-16" value="user 用户表" style="swimlane;childLayout=stackLayout;horizontal=1;startSize=50;horizontalStack=0;rounded=1;fontSize=14;fontStyle=0;strokeWidth=2;resizeParent=0;resizeLast=1;shadow=0;dashed=0;align=center;arcSize=4;whiteSpace=wrap;html=1;" vertex="1" parent="1">
          <mxGeometry x="630" y="420" width="160" height="300" as="geometry" />
        </mxCell>
        <mxCell id="dFxG5B13dRNkU5GHpNi5-17" value="&lt;font style=&quot;font-size: 14px;&quot;&gt;id&lt;br&gt;account&lt;br&gt;name&lt;br&gt;password&lt;/font&gt;&lt;div&gt;&lt;font size=&quot;3&quot;&gt;gender&lt;br&gt;age&lt;br&gt;phone&lt;/font&gt;&lt;/div&gt;&lt;div&gt;&lt;font size=&quot;3&quot;&gt;address&lt;/font&gt;&lt;/div&gt;&lt;div&gt;&lt;font size=&quot;3&quot;&gt;head_path&lt;br&gt;money&lt;br&gt;state&lt;br&gt;time&lt;br&gt;del&lt;/font&gt;&lt;/div&gt;" style="align=left;strokeColor=none;fillColor=none;spacingLeft=4;fontSize=12;verticalAlign=top;resizable=0;rotatable=0;part=1;html=1;" vertex="1" parent="dFxG5B13dRNkU5GHpNi5-16">
          <mxGeometry y="50" width="160" height="250" as="geometry" />
        </mxCell>
        <mxCell id="dFxG5B13dRNkU5GHpNi5-19" value="condatetime&amp;nbsp;&lt;div&gt;可预约时间段表&lt;/div&gt;" style="swimlane;childLayout=stackLayout;horizontal=1;startSize=50;horizontalStack=0;rounded=1;fontSize=14;fontStyle=0;strokeWidth=2;resizeParent=0;resizeLast=1;shadow=0;dashed=0;align=center;arcSize=4;whiteSpace=wrap;html=1;" vertex="1" parent="1">
          <mxGeometry x="560" y="750" width="160" height="160" as="geometry" />
        </mxCell>
        <mxCell id="dFxG5B13dRNkU5GHpNi5-20" value="&lt;font style=&quot;font-size: 14px;&quot;&gt;id&lt;br&gt;consultant_id&lt;br&gt;date&lt;br&gt;&lt;/font&gt;&lt;div&gt;&lt;font size=&quot;3&quot;&gt;time&lt;br&gt;status&lt;br&gt;&lt;br&gt;&lt;/font&gt;&lt;/div&gt;" style="align=left;strokeColor=none;fillColor=none;spacingLeft=4;fontSize=12;verticalAlign=top;resizable=0;rotatable=0;part=1;html=1;" vertex="1" parent="dFxG5B13dRNkU5GHpNi5-19">
          <mxGeometry y="50" width="160" height="110" as="geometry" />
        </mxCell>
        <mxCell id="dFxG5B13dRNkU5GHpNi5-21" style="edgeStyle=orthogonalEdgeStyle;rounded=0;orthogonalLoop=1;jettySize=auto;html=1;exitX=0.5;exitY=1;exitDx=0;exitDy=0;" edge="1" parent="dFxG5B13dRNkU5GHpNi5-19" source="dFxG5B13dRNkU5GHpNi5-20" target="dFxG5B13dRNkU5GHpNi5-20">
          <mxGeometry relative="1" as="geometry" />
        </mxCell>
        <mxCell id="dFxG5B13dRNkU5GHpNi5-23" style="edgeStyle=orthogonalEdgeStyle;rounded=0;orthogonalLoop=1;jettySize=auto;html=1;exitX=0.5;exitY=1;exitDx=0;exitDy=0;" edge="1" parent="dFxG5B13dRNkU5GHpNi5-19" source="dFxG5B13dRNkU5GHpNi5-20" target="dFxG5B13dRNkU5GHpNi5-20">
          <mxGeometry relative="1" as="geometry" />
        </mxCell>
        <mxCell id="dFxG5B13dRNkU5GHpNi5-24" value="reply 咨询师答复表" style="swimlane;childLayout=stackLayout;horizontal=1;startSize=50;horizontalStack=0;rounded=1;fontSize=14;fontStyle=0;strokeWidth=2;resizeParent=0;resizeLast=1;shadow=0;dashed=0;align=center;arcSize=4;whiteSpace=wrap;html=1;" vertex="1" parent="1">
          <mxGeometry x="360" y="420" width="160" height="150" as="geometry" />
        </mxCell>
        <mxCell id="dFxG5B13dRNkU5GHpNi5-25" value="&lt;font style=&quot;font-size: 14px;&quot;&gt;id&lt;br&gt;resrvation_id&lt;br&gt;descrip&lt;br&gt;response_content&lt;br&gt;time&lt;/font&gt;" style="align=left;strokeColor=none;fillColor=none;spacingLeft=4;fontSize=12;verticalAlign=top;resizable=0;rotatable=0;part=1;html=1;" vertex="1" parent="dFxG5B13dRNkU5GHpNi5-24">
          <mxGeometry y="50" width="160" height="100" as="geometry" />
        </mxCell>
        <mxCell id="dFxG5B13dRNkU5GHpNi5-26" value="comment 用户评价表" style="swimlane;childLayout=stackLayout;horizontal=1;startSize=50;horizontalStack=0;rounded=1;fontSize=14;fontStyle=0;strokeWidth=2;resizeParent=0;resizeLast=1;shadow=0;dashed=0;align=center;arcSize=4;whiteSpace=wrap;html=1;" vertex="1" parent="1">
          <mxGeometry x="360" y="600" width="160" height="160" as="geometry" />
        </mxCell>
        <mxCell id="dFxG5B13dRNkU5GHpNi5-27" value="&lt;font style=&quot;font-size: 14px;&quot;&gt;id&lt;br&gt;user_id&lt;br&gt;consultant_id&lt;br&gt;time&lt;br&gt;content&lt;br&gt;reply_id&lt;/font&gt;" style="align=left;strokeColor=none;fillColor=none;spacingLeft=4;fontSize=12;verticalAlign=top;resizable=0;rotatable=0;part=1;html=1;" vertex="1" parent="dFxG5B13dRNkU5GHpNi5-26">
          <mxGeometry y="50" width="160" height="110" as="geometry" />
        </mxCell>
        <mxCell id="dFxG5B13dRNkU5GHpNi5-28" value="administrator&lt;div&gt;管理员(咨询师)账号表&lt;/div&gt;" style="swimlane;childLayout=stackLayout;horizontal=1;startSize=50;horizontalStack=0;rounded=1;fontSize=14;fontStyle=0;strokeWidth=2;resizeParent=0;resizeLast=1;shadow=0;dashed=0;align=center;arcSize=4;whiteSpace=wrap;html=1;" vertex="1" parent="1">
          <mxGeometry x="360" y="850" width="160" height="180" as="geometry" />
        </mxCell>
        <mxCell id="dFxG5B13dRNkU5GHpNi5-29" value="&lt;font style=&quot;font-size: 14px;&quot;&gt;id&lt;/font&gt;&lt;div&gt;&lt;font style=&quot;font-size: 14px;&quot;&gt;account&lt;br&gt;password&lt;br&gt;name&lt;br&gt;consultant_id&lt;br&gt;state&lt;br&gt;del&lt;br&gt;&lt;br&gt;&lt;/font&gt;&lt;/div&gt;" style="align=left;strokeColor=none;fillColor=none;spacingLeft=4;fontSize=12;verticalAlign=top;resizable=0;rotatable=0;part=1;html=1;" vertex="1" parent="dFxG5B13dRNkU5GHpNi5-28">
          <mxGeometry y="50" width="160" height="130" as="geometry" />
        </mxCell>
        <mxCell id="dFxG5B13dRNkU5GHpNi5-32" value="consultant&lt;div&gt;咨询师个人信息表&lt;/div&gt;" style="swimlane;childLayout=stackLayout;horizontal=1;startSize=50;horizontalStack=0;rounded=1;fontSize=14;fontStyle=0;strokeWidth=2;resizeParent=0;resizeLast=1;shadow=0;dashed=0;align=center;arcSize=4;whiteSpace=wrap;html=1;" vertex="1" parent="1">
          <mxGeometry x="110" y="680" width="160" height="220" as="geometry" />
        </mxCell>
        <mxCell id="dFxG5B13dRNkU5GHpNi5-33" value="&lt;font style=&quot;font-size: 14px;&quot;&gt;id&lt;/font&gt;&lt;div&gt;&lt;font style=&quot;font-size: 14px;&quot;&gt;name&lt;br&gt;sculpture&lt;br&gt;department&lt;br&gt;background&lt;br&gt;zhiwei&lt;br&gt;about&lt;br&gt;money&lt;br&gt;serviceprice&lt;br&gt;&lt;br&gt;&lt;/font&gt;&lt;/div&gt;" style="align=left;strokeColor=none;fillColor=none;spacingLeft=4;fontSize=12;verticalAlign=top;resizable=0;rotatable=0;part=1;html=1;" vertex="1" parent="dFxG5B13dRNkU5GHpNi5-32">
          <mxGeometry y="50" width="160" height="170" as="geometry" />
        </mxCell>
      </root>
    </mxGraphModel>
  </diagram>
</mxfile>
